{"title":"A$AP Mob Ft. A$AP Nast &amp; Method Man - Trillmatic [Explicit] ","uid":9723480,"size":59601939,"categoryP":"video","categoryS":"music_videos","magnet":"?xt=urn:btih:ba19aa8beef0c4996a6e1b90454e7d9b225877f8&amp;dn=A%24AP+Mob+Ft.+A%24AP+Nast+%26amp%3B+Method+Man+-+Trillmatic+%5BExplicit%5D+&amp;tr=udp%3A%2F%2Ftracker.openbittorrent.com%3A80&amp;tr=udp%3A%2F%2Fopen.demonii.com%3A1337&amp;tr=udp%3A%2F%2Ftracker.coppersurfer.tk%3A6969&amp;tr=udp%3A%2F%2Fexodus.desync.com%3A6969","seeders":2,"leechers":0,"uploader":"Sbyky","files":1,"time":1394266165,"description":"\n\nGeneral\nComplete name                            : A$AP Mob Ft. A$AP Nast &amp; Method Man - Trillmatic [Explicit] 720p [Sbyky].MP4\nFormat                                   : MPEG-4\nFormat profile                           : Base Media\nCodec ID                                 : isom\nFile size                                : 56.8 MiB\nDuration                                 : 4mn 32s\nOverall bit rate mode                    : Variable\nOverall bit rate                         : 1 751 Kbps\nEncoded date                             : UTC 2013-12-31 23:35:48\nTagged date                              : UTC 2013-12-31 23:35:48\n\nVideo\nID                                       : 1\nFormat                                   : AVC\nFormat/Info                              : Advanced Video Codec\nFormat profile                           : &lt;a class=&quot;__cf_email__&quot; href=&quot;/cdn-cgi/l/email-protection&quot; data-cfemail=&quot;2e634f47406e621d001f&quot;&gt;[email&amp;#160;protected]&lt;/a&gt;&lt;script cf-hash='f9e31' type=&quot;text/javascript&quot;&gt;\n/* &lt;![CDATA[ */!function(){try{var t=&quot;currentScript&quot;in document?document.currentScript:function(){for(var t=document.getElementsByTagName(&quot;script&quot;),e=t.length;e--;)if(t[e].getAttribute(&quot;cf-hash&quot;))return t[e]}();if(t&amp;&amp;t.previousSibling){var e,r,n,i,c=t.previousSibling,a=c.getAttribute(&quot;data-cfemail&quot;);if(a){for(e=&quot;&quot;,r=parseInt(a.substr(0,2),16),n=2;a.length-n;n+=2)i=parseInt(a.substr(n,2),16)^r,e+=String.fromCharCode(i);e=document.createTextNode(e),c.parentNode.replaceChild(e,c)}}}catch(u){}}();/* ]]&gt; */&lt;/script&gt;\nFormat settings, CABAC                   : Yes\nFormat settings, ReFrames                : 3 frames\nCodec ID                                 : avc1\nCodec ID/Info                            : Advanced Video Coding\nDuration                                 : 4mn 32s\nBit rate                                 : 1 622 Kbps\nWidth                                    : 1 280 pixels\nHeight                                   : 720 pixels\nDisplay aspect ratio                     : 16:9\nFrame rate mode                          : Constant\nFrame rate                               : 23.976 fps\nColor space                              : YUV\nChroma subsampling                       : 4:2:0\nBit depth                                : 8 bits\nScan type                                : Progressive\nBits/(Pixel*Frame)                       : 0.073\nStream size                              : 52.6 MiB (93%)\nEncoded date                             : UTC 2013-12-31 23:35:48\nTagged date                              : UTC 2013-12-31 23:35:48\n\nAudio\nID                                       : 2\nFormat                                   : AAC\nFormat/Info                              : Advanced Audio Codec\nFormat profile                           : LC\nCodec ID                                 : 40\nDuration                                 : 4mn 32s\nBit rate mode                            : Variable\nBit rate                                 : 126 Kbps\nChannel(s)                               : 2 channels\nChannel positions                        : Front: L R\nSampling rate                            : 44.1 KHz\nCompression mode                         : Lossy\nStream size                              : 4.08 MiB (7%)\nEncoded date                             : UTC 2013-12-31 23:35:31\nTagged date                              : UTC 2013-12-31 23:35:31\n\nShared By Sbyky\n","torrent":{"xt":"urn:btih:ba19aa8beef0c4996a6e1b90454e7d9b225877f8","amp;dn":"A%24AP+Mob+Ft.+A%24AP+Nast+%26amp%3B+Method+Man+-+Trillmatic+%5BExplicit%5D+","amp;tr":["udp%3A%2F%2Ftracker.openbittorrent.com%3A80","udp%3A%2F%2Fopen.demonii.com%3A1337","udp%3A%2F%2Ftracker.coppersurfer.tk%3A6969","udp%3A%2F%2Fexodus.desync.com%3A6969"],"infoHash":"ba19aa8beef0c4996a6e1b90454e7d9b225877f8","infoHashBuffer":{"type":"Buffer","data":[186,25,170,139,238,240,196,153,106,110,27,144,69,78,125,155,34,88,119,248]},"announce":[],"urlList":[]}}